PathFileType	4	(X/Y/Z)	C:\Users\°ÂÌØÂü\Desktop\20210112\bx_y_5_1801-Unnamed.trc
DataRate	CameraRate	NumFrames	NumMarkers	Units	OrigDataRate	OrigDataStartFrame	OrigNumFrames
50.00	50.00	       8	0	mm	50.00	70	       558
Frame#	Time	
		

70	1.380	-704.51959	-72.13859	1555.75537	-598.96497	-3.87320	799.87854	-647.68738	279.62912	874.06213	-699.54773	274.70023	745.91608	-731.18481	250.97495	637.11462	-677.81219	18.86900	520.32062	-736.28107	246.05203	574.79517	-777.88470	256.20505	502.36734	-683.16479	203.48753	532.88721				-664.19885	-66.05730	163.92583	-711.88330	152.54137	216.66028	-624.09106	-77.08528	160.10884	-771.01703	223.37952	204.39775	-882.45801	295.98141	144.52785	-673.75647	56.84942	156.49113	-602.04327	19.76210	165.51512	-559.73212	-43.20689	162.43399	-674.41254	172.03157	157.64137	-594.13580	222.96506	173.64888	-665.84735	299.23624	160.09250	-628.46722	307.32687	161.59216	-560.85931	262.48010	165.68199	-528.09418	304.35834	146.31961	-650.75183	120.37754	1851.17029	-737.96783	283.04062	1538.83240	-517.98785	-72.92955	142.54131	-795.93732	173.25038	182.86136	-766.76678	-3.54901	205.63454	-793.95380	57.43267	174.53296	-801.59595	96.41782	1043.18616	-772.77795	-34.64420	486.20123	-876.10815	-78.79579	141.22952	-618.81097	105.40127	1441.82495	-603.39740	-6.22391	1047.97583	-693.05939	-49.80510	704.28278	-712.85352	-28.28824	615.47260	-727.60986	-25.00551	566.36316	-593.97754	219.23929	1067.31653	-596.19250	211.54167	821.29364	-703.85278	80.73486	573.46649	-716.43481	79.69545	216.61288	
71	1.400	-704.84583	-72.33678	1555.82935	-598.98645	-3.94704	800.12909	-647.68738	279.62912	874.06213	-699.26135	274.82068	745.98663	-731.05475	250.98831	637.30072	-677.81219	18.86900	520.32062	-736.28870	245.75404	574.64801	-777.65094	256.11337	501.94800	-683.16479	203.48753	532.88721	-656.09717	-67.48390	854.69916	-664.14178	-66.03054	163.74538	-711.68994	152.64832	216.42119	-623.97589	-77.07092	160.41405	-771.02881	223.50943	204.55223	-882.51776	296.06790	144.63388	-673.88141	56.94543	156.38545	-601.98993	19.75911	165.64807	-559.62897	-43.35625	162.46826	-674.51904	171.99690	157.58092	-593.91498	223.18794	173.93970	-665.87677	299.18872	160.20036	-628.58746	307.33377	161.62895	-560.81085	262.41577	165.55379	-527.99097	304.16925	146.54407	-651.20056	120.44037	1851.19629	-738.16998	282.78796	1538.64197	-518.02209	-72.53428	142.59947	-795.99445	173.29132	182.82777	-766.76385	-3.68336	205.76285	-793.92676	56.98624	174.43085	-801.59595	96.41782	1043.18616	-772.84918	-34.88889	486.45142	-875.99457	-78.94872	141.12155	-619.15802	105.32727	1441.86816	-603.39386	-6.28736	1047.92944	-692.99323	-49.86025	704.39954	-712.85352	-28.28824	615.47260	-727.58002	-25.22030	566.28326	-594.09857	219.15945	1067.24121	-595.90869	211.37851	821.47327	-703.71985	80.45676	573.57825	-716.43481	79.69545	216.61288	
72	1.420	-705.36322	-72.31894	1555.90588	-598.77460	-3.93770	800.24542	-647.68738	279.62912	874.06213	-698.75665	274.56277	745.56342	-730.91125	251.08165	637.43561	-677.86859	18.74099	520.18811	-735.85132	245.50281	574.52570	-777.51526	256.13751	502.20828	-683.16479	203.48753	532.88721	-656.13818	-67.50448	854.84430	-664.12598	-66.09748	163.75757	-711.70905	152.51942	216.64702	-624.00183	-77.27056	160.47813	-771.00793	223.35393	204.58429	-882.45093	296.26074	144.77994	-673.88141	56.94543	156.38545	-601.85486	19.69950	165.61034	-559.60590	-43.26181	162.53798	-674.39984	172.10583	157.69983	-594.03638	223.10539	173.74680	-665.86420	299.15485	160.11609	-628.31921	307.22537	161.72197	-560.96002	262.46426	165.57745	-527.99927	304.08032	146.56969	-652.11169	120.16058	1851.03308	-738.45502	282.82083	1538.59875	-517.98785	-72.92955	142.54131	-796.03973	173.22614	182.97032	-766.84656	-3.62595	205.61861	-794.14160	57.35135	174.64259	-801.59595	96.41782	1043.18616	-772.74353	-34.73029	486.31256	-875.97589	-78.81084	141.28232	-619.41870	105.22103	1442.06628	-603.39386	-6.28736	1047.92944	-692.79602	-50.14334	704.48602	-712.70544	-28.26545	615.40344	-727.53558	-25.07397	566.11835	-593.85651	218.91719	1067.38245	-595.73022	211.50999	821.59515	-703.71985	80.45676	573.57825	-716.43481	79.69545	216.61288	
73	1.440	-705.61414	-72.64370	1555.74829	-598.72565	-3.96669	800.07721	-647.44141	279.52112	874.04657	-698.90350	274.60016	746.00763	-730.66132	250.85179	637.36835	-677.81219	18.86900	520.32062	-736.06226	245.64026	574.64691	-777.32709	256.13663	502.20804	-683.16479	203.48753	532.88721				-664.24933	-66.01254	163.81735	-711.68994	152.64832	216.42119	-624.00183	-77.27056	160.47813	-770.95313	223.49475	204.56903	-882.51276	296.11960	144.68694	-673.88141	56.94543	156.38545	-601.97131	19.70431	165.56253	-559.62897	-43.35625	162.46826	-674.39984	172.10583	157.69983	-594.04700	223.10378	173.75253	-665.84735	299.23624	160.09250	-628.36700	307.25244	161.49742	-560.95538	262.44919	165.62529	-528.14117	304.15381	146.34581	-652.67682	120.35873	1850.98999	-738.85791	282.77963	1538.34131	-517.98950	-72.65875	142.46167	-796.03973	173.22614	182.97032	-766.71777	-3.57015	205.41623	-794.25128	57.31418	174.66173	-801.59595	96.41782	1043.18616	-772.50189	-34.59013	486.17990	-876.20093	-79.02077	141.43263	-619.48401	104.96206	1442.00000	-603.39386	-6.28736	1047.92944	-692.75977	-50.08683	704.49591	-712.71820	-28.18631	615.42102	-727.53558	-25.07397	566.11835	-593.98108	218.64468	1067.30200	-595.74683	211.18364	821.38489	-703.55963	80.38443	573.71661	-716.32172	79.60970	216.50159	-700.70087	141.55054	573.89954	
74	1.460	-706.00494	-72.68330	1555.70557	-598.90234	-4.03389	800.27063	-647.44141	279.52112	874.04657	-698.90137	274.54111	746.04932	-730.68658	251.01952	637.45538	-677.77893	18.76660	520.12769	-735.84650	245.38792	574.67798	-777.32709	256.13663	502.20804	-683.16479	203.48753	532.88721				-664.17590	-66.08053	163.92857	-711.67365	152.45306	216.53943	-624.01251	-77.14900	160.34294	-771.01703	223.37952	204.39775	-882.54041	296.04242	144.61497	-673.88141	56.94543	156.38545	-601.91669	19.72986	165.61092	-559.88995	-43.27775	162.48232	-674.42053	172.08267	157.50534	-594.18042	223.14787	173.70631	-665.95050	299.22659	160.27895	-628.45508	307.41199	161.67056	-560.94904	262.53073	165.67474	-528.01697	304.19867	146.71025	-652.97498	120.43356	1851.22583	-739.11969	282.84433	1538.31042	-517.93506	-72.77081	142.59683	-795.99219	173.23563	183.04218	-766.78748	-3.68117	205.67189	-794.17035	57.37672	174.69347	-801.45844	96.46066	1043.17236	-772.54443	-34.65856	486.20605	-875.97748	-78.88188	141.21204	-619.74994	104.89816	1441.99951	-603.35223	-6.35768	1048.00073	-692.87671	-50.06474	704.45764	-712.84076	-28.36738	615.45508	-727.61469	-25.15325	566.30646	-593.84357	218.66309	1067.16614	-595.77258	211.07474	821.34821	-703.60242	80.28468	573.73621	-716.27094	79.36084	215.95705	
75	1.480	-706.25531	-72.75906	1555.82153	-598.84344	-4.10655	800.10211	-647.42242	279.46008	874.12903	-698.69586	274.20044	745.64172	-730.49335	251.14195	637.59155	-677.77893	18.76660	520.12769	-735.81885	245.42691	574.57495	-777.33435	255.95969	502.31134	-683.05554	203.37083	532.87457	-655.02051	-68.58369	855.78864	-664.14178	-66.03054	163.74538	-711.58368	152.54930	216.50414	-624.02899	-77.10754	160.42647	-771.05530	223.42427	204.64752	-882.52338	296.20160	144.65182	-673.75647	56.84942	156.49113	-601.91669	19.72986	165.61092	-559.78278	-43.16485	162.44901	-674.53180	171.92264	157.52246	-594.11401	223.04852	173.50204	-665.76306	299.21344	160.05109	-628.48346	307.26047	161.63339	-560.89728	262.32803	165.62727	-528.00299	304.30740	146.63148	-653.25958	120.36081	1851.18250	-739.10748	282.70865	1538.23657	-517.93506	-72.77081	142.59683	-796.03973	173.22614	182.97032	-766.74530	-3.64320	205.45407	-794.05450	57.29248	174.51555	-801.45844	96.46066	1043.17236	-772.55627	-34.79604	486.18051	-875.93195	-78.89499	141.20357	-619.71460	104.81689	1442.09497	-603.25464	-6.53828	1048.01990	-692.75977	-50.08683	704.49591	-712.66437	-28.37072	615.43506	-727.58002	-25.22030	566.28326	-593.76263	218.54384	1067.33435	-595.61804	211.12878	821.27356	-703.84857	80.17056	573.32654	-716.48798	79.31078	215.83456	-700.42267	141.12241	574.21436	
76	1.500	-706.42676	-72.95619	1555.62939	-598.57837	-4.34520	800.24695	-647.32843	279.38257	874.18066	-698.62854	274.19907	745.80219	-730.60492	250.89018	637.47809	-677.73578	18.58615	520.25287	-735.75116	245.45808	574.44269	-777.27429	255.76752	502.38498	-683.12372	203.30586	532.81238				-664.30048	-66.07716	163.74930	-711.48602	152.33316	216.44678	-623.95197	-76.93860	160.52742	-770.98822	223.43546	204.47856	-882.52289	296.28217	144.76390	-673.88141	56.94543	156.38545	-601.91669	19.72986	165.61092	-559.77173	-43.31864	162.37576	-674.42053	172.08267	157.50534	-594.07013	222.98343	173.71964	-665.84735	299.23624	160.09250	-628.23077	307.18689	161.82552	-561.00250	262.41684	165.53426	-528.05817	304.30383	146.49913	-654.07379	120.19001	1851.19617	-739.39191	282.36331	1538.18408	-517.98950	-72.65875	142.46167	-795.87109	173.20848	182.84598	-766.84656	-3.62595	205.61861	-794.00281	57.43742	174.35393	-801.37585	96.40792	1043.02100	-772.74353	-34.73029	486.31256	-875.97589	-78.81084	141.28232	-620.07135	104.37925	1441.92261	-603.13922	-6.82482	1048.10071	-692.67780	-50.19128	704.61884	-712.66437	-28.37072	615.43506	-727.35638	-25.12517	566.05518	-593.52356	218.45105	1067.37927	-595.64630	210.84799	821.15405	-703.79700	80.28108	573.30841	-716.43481	79.69545	216.61288	
77	1.520	-706.46698	-72.90438	1555.55981	-598.44800	-4.41809	800.20044	-647.32843	279.38257	874.18066	-698.62854	274.19907	745.80219	-730.40417	250.85899	637.46100	-677.77893	18.76660	520.12769	-735.71130	245.37549	574.49011	-777.18518	255.90968	502.37225	-682.97729	203.18948	532.77563	-655.44769	-68.09523	854.95801	-664.18671	-66.11710	163.93013	-711.81567	152.58669	216.53177	-624.01831	-77.22911	160.56166	-771.00281	223.46184	204.70447	-882.60846	295.97998	144.61714	-673.88141	56.94543	156.38545	-601.92310	19.65677	165.67731	-559.91455	-43.28105	162.28328	-674.53180	171.92264	157.52246	-594.14624	223.12624	173.77902	-665.82947	299.21927	160.28429	-628.45099	307.25177	161.59894	-560.95508	262.44037	165.58722	-528.04987	304.39276	146.47350	-654.62152	120.32739	1851.07605	-739.54321	282.33286	1538.01184	-517.98950	-72.65875	142.46167	-796.05634	173.29611	183.01912	-766.84656	-3.62595	205.61861	-794.22168	57.36055	174.69572	-801.36823	96.33488	1043.03015	-772.50189	-34.59013	486.17990	-875.97589	-78.81084	141.28232	-620.37012	104.13924	1441.88550	-603.07062	-6.76294	1048.11768	-692.76770	-50.13973	704.44592	-712.58441	-28.46179	615.45392	-727.35638	-25.12517	566.05518	-593.66858	218.41551	1067.33826	-595.41217	211.03290	821.36273	-703.71606	80.19077	573.69116	-716.26782	79.63960	216.35410	
